<svg width="18" height="22" viewBox="0 0 18 22" fill="none" xmlns="http://www.w3.org/2000/svg">
<path d="M15.0036 21.098C13.8449 22.2552 12.5666 22.0748 11.348 21.5292C10.0525 20.9726 8.86822 20.9374 7.50005 21.5292C5.79625 22.286 4.89198 22.066 3.86585 21.098C-1.9275 14.96 -1.07239 5.61 5.51193 5.258C7.10884 5.346 8.22689 6.1666 9.16751 6.2348C10.5656 5.9422 11.9039 5.104 13.4003 5.214C15.1982 5.3636 16.5428 6.094 17.4407 7.4074C13.7423 9.6954 14.6188 14.7114 18.0157 16.1194C17.3359 17.9564 16.4637 19.7714 15.0015 21.1134L15.0036 21.098ZM9.03925 5.192C8.86609 2.464 11.0145 0.22 13.4858 0C13.8257 3.146 10.7067 5.5 9.03925 5.192Z" fill="black"/>
</svg>
