<svg width="24" height="24" viewBox="0 0 24 24" fill="none" xmlns="http://www.w3.org/2000/svg">
<path d="M24 12.2697C24 11.4797 23.9285 10.7297 23.8059 9.99976H12.2605V14.5097H18.871C18.5747 15.9897 17.7062 17.2397 16.4189 18.0897V21.0896H20.3627C22.6717 18.9997 24 15.9197 24 12.2697Z" fill="#4285F4"/>
<path d="M12.2603 23.9999C15.5706 23.9999 18.3395 22.92 20.3625 21.09L16.4186 18.09C15.3152 18.81 13.9154 19.25 12.2603 19.25C9.0623 19.25 6.35475 17.14 5.38413 14.29H1.3177V17.38C3.33048 21.3 7.46842 23.9999 12.2603 23.9999Z" fill="#34A853"/>
<path d="M5.38443 14.2903C5.129 13.5703 4.99618 12.8003 4.99618 12.0003C4.99618 11.2003 5.13922 10.4303 5.38443 9.71033V6.62036H1.31801C0.480204 8.24035 0 10.0603 0 12.0003C0 13.9403 0.480204 15.7603 1.31801 17.3803L5.38443 14.2903Z" fill="#FBBC05"/>
<path d="M12.2603 4.74995C14.0687 4.74995 15.683 5.35995 16.9601 6.54994L20.4544 3.12997C18.3395 1.18999 15.5706 0 12.2603 0C7.46842 0 3.33048 2.69998 1.3177 6.61994L5.38413 9.70991C6.35475 6.85994 9.0623 4.74995 12.2603 4.74995Z" fill="#EA4335"/>
</svg>
