<svg width="231" height="231" viewBox="0 0 231 231" fill="none" xmlns="http://www.w3.org/2000/svg">
<g clip-path="url(#clip0_170_3451)">
<path d="M157.08 169.356L168.373 183.857L217.653 179.714L213.547 172.981L208.927 155.89L205.847 141.907V117.565L203.28 104.1L197.633 102.028L192.5 105.653L189.42 109.797L187.367 94.7773L185.827 80.2759L181.207 75.0968H177.1L171.453 68.364L165.807 69.9177L162.727 72.5073L158.62 69.9177L154 71.9894L149.38 82.8654L147.327 90.6341L142.707 89.5982L138.087 95.8131L136.547 108.243L143.733 138.799L157.08 169.356Z" fill="white"/>
<path d="M20.5333 166.766L13.8599 181.268L66.7333 184.375L70.3266 182.822L80.0799 171.946L88.8066 155.89L92.9133 133.62L93.9399 119.637L91.3733 102.028L85.7266 95.2951H81.6199L80.0799 85.9728L75.4599 73.543L70.3266 71.4714L64.6799 73.543L61.5999 68.8818L56.4666 67.3281L52.8733 68.8818L49.7933 72.5072L44.6599 68.8818L38.4999 69.9177L37.9866 74.0609L40.0399 88.5623L42.0933 113.94H39.5266L31.8266 108.761L26.6933 113.94V143.978L20.5333 166.766Z" fill="white"/>
<path d="M82.3828 96.7366C82.4841 98.9499 82.5853 101.163 82.6528 103.376C82.7878 107.156 82.889 110.901 82.9565 114.681C82.9565 115.396 82.8215 116.145 82.6528 116.86C82.4503 117.609 81.8766 117.984 81.1341 117.95C80.3916 117.881 79.9191 117.405 79.7504 116.69C79.6829 116.383 79.6829 116.077 79.6829 115.77C79.5479 110.084 79.6154 104.398 79.2104 98.7115C78.8392 93.2976 77.6917 87.9518 76.2743 82.7082C75.9705 81.5846 75.6668 80.4269 75.2618 79.3373C74.8231 78.1796 74.3843 76.9879 73.6756 76.0004C72.0557 73.685 69.2883 72.3571 65.7109 74.4341C66.1834 76.1026 66.6896 77.805 67.1283 79.5416C68.377 84.2745 69.0858 89.1095 69.592 93.9446C70.3682 100.823 70.537 107.769 70.537 114.681C70.537 115.362 70.537 116.043 70.4695 116.724C70.3345 117.915 69.8282 118.528 69.0183 118.562C68.1408 118.596 67.6346 117.95 67.4996 116.622C67.4658 116.247 67.4658 115.873 67.4658 115.498C67.6008 107.939 67.1958 100.414 66.3521 92.9231C65.7109 87.4751 64.9009 81.9931 63.0447 76.8176C62.336 74.8087 61.1885 72.9019 60.0073 71.1313C58.2524 68.4754 54.2025 68.3733 52.1101 70.7908C51.6376 71.3356 51.3001 72.0166 50.8951 72.6295C53.8988 76.4431 55.1137 80.9376 55.7887 85.5343C56.9024 92.7869 57.7124 100.108 58.6574 107.394C58.7586 108.314 58.7924 109.233 58.7586 110.186C58.7249 111.037 58.2186 111.582 57.4087 111.684C56.5987 111.787 55.9912 111.344 55.755 110.527C55.62 110.118 55.5525 109.675 55.485 109.267C54.8437 103.615 54.3038 97.9624 53.595 92.3102C53.0551 87.9518 52.2451 83.6616 50.8276 79.4735C49.8827 76.6814 48.229 74.4341 46.069 72.5614C44.3478 71.0632 42.2554 70.9611 40.163 71.608C38.5093 72.1188 37.7331 73.9915 38.5093 75.4897C40.6355 79.5756 41.3442 84.0021 41.7492 88.5307C42.4579 97.1112 42.6942 105.692 42.9641 114.272C43.0316 116.485 43.1666 118.733 43.2341 120.946C43.2341 121.491 43.1329 122.036 42.9979 122.546C42.7954 123.193 42.2892 123.568 41.6142 123.534C40.9392 123.5 40.6017 123.023 40.3317 122.41C39.1168 119.448 37.9018 116.485 36.6194 113.557C35.8769 111.889 34.5269 110.867 32.8057 110.288C31.692 109.914 30.7471 110.152 29.9708 111.003C28.3509 112.774 27.1697 114.783 27.0009 117.235C26.8659 119.005 26.7984 120.81 26.9334 122.614C27.4734 130.037 27.6422 137.426 26.8659 144.849C26.1235 151.931 24.8747 158.945 22.3773 165.619C20.4536 170.692 17.9225 175.527 15.6613 180.431C15.5263 180.771 15.2901 181.078 15.0201 181.316C14.4801 181.827 13.7376 181.963 13.1639 181.52C12.7589 181.18 12.4889 180.499 12.4552 179.954C12.4214 179.443 12.7589 178.898 12.9951 178.422C14.5813 175.085 16.2013 171.748 17.7537 168.377C20.1499 163.236 21.2974 157.754 22.4448 152.238C24.301 143.385 24.1323 134.43 23.8285 125.44C23.761 123.227 23.5585 121.014 23.5585 118.767C23.5248 115.021 24.8747 111.787 27.3384 108.994C29.3971 106.679 31.7933 106.134 34.6282 107.36C36.4844 108.177 38.0031 109.335 39.083 111.106C39.2855 111.412 39.488 111.718 39.9267 112.399C39.9267 111.548 39.9605 111.072 39.9267 110.629C39.4543 102.797 39.0493 94.9661 38.5093 87.1346C38.2393 83.2189 37.2268 79.4735 35.9781 75.7621C34.6619 71.8123 36.7206 68.5435 40.838 68.0669C44.0104 67.6923 46.0353 68.3052 49.3089 70.7227C49.5789 70.2801 49.8489 69.8034 50.1189 69.3607C51.3339 67.3859 53.1225 66.3303 55.4175 66.1941C55.7887 66.1601 56.1599 66.2282 56.5312 66.1601C59.3661 65.6493 61.1885 67.2156 62.7072 69.2926C63.3822 70.212 63.9897 71.2335 64.5634 72.1528C65.6096 71.7102 66.5208 71.1994 67.4996 70.927C70.9757 69.9396 74.2831 71.0632 76.308 74.0936C77.253 75.5237 77.9955 77.1241 78.5354 78.7584C79.9866 83.1508 81.0329 87.6794 81.7078 92.2761C81.8091 92.9571 81.9778 93.6041 82.1128 94.217C82.3153 94.217 82.4503 94.251 82.5516 94.217C85.3527 93.57 87.1077 94.3532 88.8288 96.6685C92.2037 101.265 93.6212 106.509 94.1274 112.059C95.2411 124.078 94.4649 136.03 92.2712 147.879C91.09 154.315 88.8626 160.409 85.8252 166.164C84.4415 168.752 82.4841 171.033 80.7966 173.45C77.658 178.047 73.5069 181.588 69.3895 185.198C68.782 185.708 68.107 186.185 67.4321 186.56C66.5208 187.036 65.6434 186.832 65.1371 186.083C64.6309 185.368 64.7659 184.483 65.5084 183.733C65.6096 183.631 65.7109 183.563 65.7784 183.495C67.6008 181.929 69.3895 180.363 71.2457 178.83C75.4643 175.425 78.6029 171.033 81.5728 166.606C84.6102 162.078 86.5002 156.936 87.8839 151.659C90.685 140.865 91.4613 129.867 91.225 118.733C91.1238 114 90.5838 109.369 89.3351 104.806C88.6264 102.185 87.1414 99.9713 85.589 97.8603C84.8127 96.8388 83.834 96.1578 82.3828 96.7366Z" fill="black"/>
<path d="M146.877 88.4967C146.911 88.3605 147.012 88.1221 147.012 87.8838C147.114 84.7512 148.295 81.857 149.172 78.9288C150.151 75.7621 151.805 72.936 153.931 70.4163C155.922 68.101 157.812 67.8286 160.444 69.3268C161.086 69.7013 161.693 70.0418 162.334 70.4163C163.279 69.5311 164.123 68.7479 164.967 67.9648C165.777 67.2157 166.722 66.8752 167.802 66.8071C170.907 66.6368 173.64 67.3178 175.463 70.1439C176.34 71.5059 177.386 72.7998 178.5 74.298C178.601 74.264 179.006 74.1959 179.411 74.1278C182.077 73.6511 184.507 74.9449 185.79 77.3625C187.713 80.9377 188.118 84.8874 188.422 88.8372C188.861 94.0808 189.198 99.3245 189.603 104.534C189.637 105.147 189.772 105.76 189.941 106.849C190.481 106.032 190.785 105.556 191.088 105.079C192.54 102.627 194.969 101.538 197.467 100.721C198.176 100.482 199.053 100.584 199.829 100.755C203.035 101.47 205.668 104.194 206.005 107.326C206.444 111.378 206.95 115.43 207.153 119.482C207.389 124.487 207.355 129.492 207.389 134.498C207.457 142.704 208.57 150.739 211.101 158.571C212.316 162.316 213.363 166.13 214.645 169.875C215.421 172.089 216.501 174.166 217.446 176.311C217.682 176.889 218.02 177.4 218.222 177.979C218.695 179.205 218.425 180.09 217.514 180.499C216.67 180.873 215.894 180.499 215.286 179.443C213.261 175.97 211.709 172.259 210.528 168.445C209.313 164.564 207.963 160.716 206.95 156.766C205.634 151.693 204.453 146.551 204.284 141.274C204.115 135.894 204.082 130.514 203.913 125.134C203.744 120.265 203.44 115.396 203.17 110.493C203.103 109.437 202.9 108.416 202.664 107.394C202.192 105.351 199.931 103.513 198.243 103.955C196.657 104.364 195.071 104.977 194.058 106.441C193.552 107.156 193.079 107.871 192.742 108.654C191.831 110.731 190.987 112.842 190.143 114.987C189.84 115.736 189.536 116.417 188.625 116.315C187.747 116.247 187.41 115.6 187.308 114.783C187.106 112.706 186.903 110.595 186.701 108.518C186.363 104.875 186.06 101.265 185.722 97.622C185.621 96.4643 185.587 95.2726 185.486 94.1149C185.182 90.9823 184.845 87.8498 184.609 84.7172C184.44 82.7083 183.9 80.8355 183.022 79.0649C182.752 78.5202 182.415 77.9754 181.976 77.6008C181.031 76.8177 179.951 77.022 179.377 78.1456C178.837 79.2352 178.264 80.3588 177.96 81.5506C177.218 84.6831 176.543 87.7817 176.239 91.0164C175.496 98.7456 175.935 106.475 175.699 114.17C175.665 115.396 175.598 116.656 175.53 117.882C175.496 118.358 175.429 118.937 175.159 119.278C174.855 119.686 174.315 120.061 173.876 120.095C173.235 120.163 172.763 119.652 172.594 118.971C172.526 118.597 172.493 118.222 172.493 117.882C172.493 111.072 172.425 104.262 172.526 97.4858C172.594 90.9823 173.235 84.5469 175.598 78.384C175.733 78.0094 175.8 77.5327 175.699 77.1582C175.125 74.5364 173.91 72.2891 171.784 70.6547C171.311 70.2801 170.738 70.0418 170.164 69.9056C168.139 69.3949 166.553 70.0418 165.473 71.8464C165 72.6296 164.629 73.4808 164.292 74.3321C162.908 78.1116 162.334 82.0954 161.626 86.0451C160.951 89.8587 161.018 93.6722 160.748 97.4858C160.377 103.104 160.478 108.722 160.816 114.34C160.883 115.396 160.782 116.451 160.681 117.473C160.613 118.12 160.174 118.631 159.466 118.631C158.757 118.665 158.352 118.188 158.149 117.541C158.048 117.201 157.981 116.826 157.981 116.451C157.373 108.858 157.407 101.265 157.609 93.6722C157.744 88.5648 158.757 83.6276 159.567 78.6223C159.803 77.1241 160.478 75.66 160.917 74.1959C161.356 72.7658 161.119 72.2891 159.769 71.8124C157.542 70.9952 157.137 71.0973 155.787 73.0382C154.032 75.5919 152.716 78.3159 151.805 81.3463C150.252 86.624 149.712 92.0038 149.543 97.4177C149.341 103.376 149.577 109.301 150.421 115.192C150.522 115.804 150.556 116.417 150.455 117.03C150.353 117.745 149.915 118.29 149.138 118.358C148.362 118.426 147.789 118.018 147.62 117.303C147.316 115.975 147.147 114.647 146.911 113.285C145.899 106.781 146.135 100.21 146.202 93.6722C146.236 91.9357 145.966 91.6293 144.211 91.6633C142.051 91.6974 140.364 93.2296 139.824 95.3407C138.676 99.9033 138.575 104.534 138.913 109.165C139.216 113.353 140.161 117.473 140.803 121.593C141.882 128.709 143.941 135.587 146.337 142.329C148.464 148.322 150.59 154.315 153.593 159.933C155.652 163.78 157.913 167.56 160.141 171.305C160.883 172.565 161.896 173.689 162.773 174.847C163.785 176.243 164.73 177.673 165.81 179.001C166.688 180.124 167.667 181.112 168.612 182.167C169.725 183.393 169.894 184.142 169.219 184.891C168.51 185.64 167.633 185.606 166.452 184.585C165.608 183.87 164.764 183.087 164.157 182.201C160.546 177.162 156.934 172.123 153.728 166.743C149.51 159.558 146.439 151.897 143.57 144.168C140.803 136.711 138.575 129.05 137.596 121.082C137.191 117.779 136.28 114.545 136.01 111.242C135.706 107.803 135.74 104.33 135.943 100.857C136.145 97.5198 137.056 94.2851 138.879 91.3909C140.094 89.4501 141.747 88.3945 144.009 88.3605C144.92 88.4967 145.764 88.4967 146.877 88.4967Z" fill="black"/>
<path d="M118.393 36.2306C118.157 39.976 117.92 43.7215 117.684 47.467C117.617 48.5565 117.583 49.6802 117.515 50.8038C117.482 51.9956 116.942 52.8468 115.794 53.1192C113.398 53.698 111.069 53.6299 108.842 52.3701C107.425 51.5529 107.29 50.8038 108.1 49.3737C108.369 48.863 108.504 48.2501 108.538 47.6713C108.606 45.6964 108.572 43.7215 108.639 41.7466C108.774 39.227 108.943 36.7073 109.146 34.1876C109.281 32.5873 109.922 32.0425 111.542 32.1106C112.892 32.1446 114.208 32.2808 115.558 32.383C117.819 32.5532 118.427 33.2002 118.427 35.5155C118.427 35.7539 118.427 35.9922 118.427 36.2646C118.46 36.2306 118.427 36.2306 118.393 36.2306ZM114.411 49.9866C114.681 45.1856 114.984 40.4527 115.254 35.5836C114.174 35.5836 113.162 35.5836 111.947 35.5836C111.711 40.3846 111.441 45.0835 111.204 49.9866C112.386 49.9866 113.331 49.9866 114.411 49.9866Z" fill="black"/>
<path d="M83.5982 38.716C83.5307 37.4562 84.1044 36.673 85.2181 36.2644C86.7031 35.7197 88.188 35.1408 89.7405 34.7322C91.7992 34.1874 92.5416 34.6301 93.1154 36.7071C94.4653 41.44 95.7815 46.2069 97.064 50.9739C97.4015 52.2337 97.199 52.8466 96.0853 53.4255C95.2753 53.8341 94.3641 54.0383 93.4866 54.2426C92.6091 54.4469 91.6979 54.5491 90.7867 54.7534C89.673 54.9917 89.268 54.8215 88.6943 53.766C88.323 53.0509 87.9855 52.3018 87.7493 51.5527C86.5006 47.8754 85.2519 44.198 84.0369 40.5206C83.8344 39.9078 83.7669 39.2949 83.5982 38.716ZM86.8043 38.5798C88.323 42.9382 89.7742 47.1603 91.2592 51.4846C92.2716 51.3144 93.1154 51.1441 94.1616 50.9739C92.8116 46.3772 91.5629 42.0188 90.2467 37.5924C89.0655 37.9329 88.0868 38.2053 86.8043 38.5798Z" fill="black"/>
<path d="M128.686 55.3322C127.033 55.196 125.413 54.9917 124.063 53.8681C123.016 53.0168 123.016 52.438 123.421 51.1441C123.928 49.5097 124.164 47.8072 124.569 46.1388C125.278 43.2105 125.919 40.2482 126.763 37.354C127.37 35.1408 128.922 34.3576 131.15 34.8343C131.994 35.0386 132.804 35.311 133.58 35.6175C135.436 36.2985 135.875 37.0135 135.537 38.9884C135.2 41.0654 134.761 43.1084 134.289 45.1514C133.715 47.671 133.074 50.1907 132.466 52.6763C131.994 54.6512 130.914 55.4003 128.686 55.3322ZM129.732 37.6264C128.551 42.3253 127.438 46.8198 126.29 51.3825C127.404 52.1315 128.45 52.1656 129.665 51.9953C130.644 47.5008 131.589 43.0743 132.567 38.5458C131.589 38.2053 130.812 37.9669 129.732 37.6264Z" fill="black"/>
<path d="M72.1907 155.949C71.1107 155.677 69.322 155.268 67.5671 154.757C67.0608 154.621 66.5883 154.212 66.2509 153.804C65.6434 152.987 66.1159 151.999 67.1283 151.931C67.6683 151.897 68.242 151.965 68.7483 152.135C72.0219 153.089 75.1606 152.68 78.198 151.284C78.3667 151.216 78.5354 151.148 78.7042 151.08C79.8516 150.705 80.6954 150.978 81.0329 151.829C81.3703 152.68 80.9991 153.6 79.9529 154.076C77.7255 155.064 75.3968 155.779 72.1907 155.949Z" fill="black"/>
<path d="M163.38 156.255C162.604 156.017 161.187 155.643 159.837 155.098C159.364 154.927 158.926 154.451 158.656 154.008C158.116 153.055 158.858 151.965 160.006 152.033C160.478 152.067 160.95 152.238 161.423 152.408C163.347 153.089 165.135 152.953 166.857 151.795C167.262 151.523 167.667 151.25 168.105 151.046C168.983 150.637 169.725 150.807 170.231 151.488C170.704 152.135 170.704 153.123 169.995 153.668C168.274 155.064 166.418 156.221 163.38 156.255Z" fill="black"/>
<path d="M71.9542 132.148C72.0892 133.715 71.4818 134.974 70.6718 136.166C69.8281 137.426 68.6469 137.426 67.6344 136.234C66.1832 134.532 66.2844 132.591 66.9932 130.65C67.4319 129.424 68.4444 128.845 69.5581 129.016C70.8743 129.186 71.7855 130.105 71.9205 131.433C71.988 131.706 71.9542 131.944 71.9542 132.148Z" fill="black"/>
<path d="M80.628 134.362C80.5943 132.863 80.9993 131.569 81.843 130.344C82.3155 129.697 82.8892 129.254 83.6992 129.424C84.5767 129.595 85.2516 130.173 85.2179 131.059C85.2179 132.761 85.1504 134.498 84.8467 136.166C84.6442 137.358 83.8342 137.835 82.923 137.801C81.978 137.767 81.1343 137.086 80.8305 135.996C80.6955 135.451 80.6955 134.906 80.628 134.362Z" fill="black"/>
<path d="M156.698 134.498C156.495 135.485 156.428 136.302 156.124 137.051C155.685 138.209 154.605 138.55 153.593 137.869C153.019 137.46 152.445 136.847 152.243 136.2C151.77 134.77 151.905 133.272 152.378 131.842C152.648 131.093 153.154 130.548 153.964 130.514C154.841 130.446 155.55 130.854 155.854 131.672C156.225 132.625 156.461 133.646 156.698 134.498Z" fill="black"/>
<path d="M167.026 133.34C167.127 132.352 167.127 131.433 167.397 130.548C167.802 129.05 169.287 128.743 170.367 129.901C171.447 131.059 171.615 134.361 170.704 135.655C170.265 136.268 169.658 136.472 168.949 136.404C168.139 136.336 167.566 135.86 167.329 135.11C167.093 134.532 167.127 133.885 167.026 133.34Z" fill="black"/>
<path d="M114.41 49.9865C113.33 49.9865 112.385 49.9865 111.204 49.9865C111.474 45.0833 111.71 40.3845 111.947 35.5835C113.162 35.5835 114.14 35.5835 115.254 35.5835C114.95 40.4866 114.68 45.1855 114.41 49.9865Z" fill="white"/>
<path d="M86.8041 38.58C88.0866 38.2054 89.0653 37.933 90.2803 37.5925C91.5627 42.019 92.8452 46.3773 94.1951 50.974C93.1489 51.1783 92.2715 51.3145 91.2927 51.4848C89.774 47.1605 88.3228 42.9383 86.8041 38.58Z" fill="white"/>
<path d="M129.732 37.6265C130.779 37.967 131.589 38.2053 132.601 38.5458C131.622 43.0744 130.677 47.5009 129.699 51.9954C128.484 52.1657 127.438 52.1316 126.324 51.3825C127.438 46.8199 128.585 42.3253 129.732 37.6265Z" fill="white"/>
</g>
<defs>
<clipPath id="clip0_170_3451">
<rect width="206.273" height="154.585" fill="white" transform="translate(12.32 32.1104)"/>
</clipPath>
</defs>
</svg>
