<svg width="414" height="460" viewBox="0 0 414 460" fill="none" xmlns="http://www.w3.org/2000/svg">
<path fill-rule="evenodd" clip-rule="evenodd" d="M370.637 74.0178C373.191 76.9259 375.756 79.8472 380.14 80.0941C382.357 80.0269 384.257 79.0731 386.259 78.0684C386.381 78.0073 386.503 77.946 386.625 77.8847C395.32 73.1808 404.229 68.762 413.281 64.8421C417.272 63.1316 420.978 60.7084 424.47 58.2139C429.388 54.6504 430.243 50.9443 427.321 45.599C421.904 35.5497 416.417 25.5005 410.929 15.4513C410.159 14.0544 409.435 12.6347 408.711 11.215C407.625 9.08538 406.538 6.9558 405.298 4.9032C402.661 0.413128 398.67 -0.941023 393.681 0.62694C390.118 1.76728 386.982 3.54905 384.06 5.75845C378.144 10.1773 371.658 13.4557 365.101 16.6629C361.965 18.1596 358.972 19.9414 356.05 21.7944C353.769 23.1486 351.845 24.8591 350.206 26.926C348.424 29.2066 347.426 31.7724 348.353 34.6945C349.636 38.8282 350.918 42.8907 353.769 46.3829C359.542 53.3675 364.032 61.2073 367.738 69.4747C367.854 69.7229 367.966 69.9826 368.08 70.2458C368.455 71.1163 368.847 72.0252 369.449 72.6819C369.849 73.1203 370.243 73.5689 370.637 74.0178ZM381.197 57.9659C381.676 59.0458 382.183 60.1872 383.418 61.2072C391.186 56.5746 399.454 52.5834 408.006 49.4475C409.859 48.8061 409.645 47.5945 408.79 46.169L408.79 46.169C404.229 38.1866 399.667 30.2043 395.249 22.1507C394.037 19.87 392.897 20.1551 391.258 21.5093C385.252 26.3549 378.265 29.5014 371.3 32.6384C370.992 32.7773 370.683 32.9161 370.375 33.0552C366.028 35.0508 365.956 35.122 368.95 38.6143C373.654 44.1734 377.36 50.4453 380.709 56.931C380.885 57.2651 381.039 57.6122 381.197 57.9659Z" fill="#FEEFCB"/>
<path d="M378.512 339.321L378.512 339.321L378.509 339.316C372.589 330.892 365.456 323.785 357.226 317.522L357.225 317.521C350.688 312.562 343.918 308.545 336.235 305.816C333.114 304.676 330.076 303.359 327.661 301.115C325.237 298.781 324.374 295.932 324.875 293.367C325.376 290.802 327.249 288.482 330.38 287.223C332.755 286.315 335.381 286.049 337.958 286.066L337.961 286.066C347.517 286.047 356.439 288.266 364.947 293.073C379.156 301.232 390.328 312.56 400.42 325.142C403.099 328.721 403.822 332.715 403.245 336.811C400.992 346.258 389.553 349.905 382.149 343.543C380.764 342.327 379.535 340.851 378.512 339.321Z" fill="#F1EDFF" stroke="#F1EDFF" stroke-width="0.52694"/>
<path fill-rule="evenodd" clip-rule="evenodd" d="M40.2272 381.209C37.7272 387.609 36.8272 394.409 37.0272 400.209C37.3272 437.909 67.4271 464.109 103.327 458.709C138.627 453.409 164.327 417.509 157.927 382.109C151.527 346.309 118.227 326.109 83.4271 336.909C60.9271 343.809 48.5272 360.509 40.2272 381.209ZM65.7272 400.709C65.5272 417.109 78.0272 429.509 93.4272 429.609C115.227 429.709 133.327 406.809 128.427 385.309C124.627 368.609 109.327 358.709 93.0272 364.009C74.4272 370.009 65.9272 380.509 65.7272 400.709Z" fill="#FEEFCB"/>
<path d="M89.6996 104.158C68.6472 104.552 19.4213 116.507 -9.06335 161.179" stroke="#F1EDFF" stroke-width="30" stroke-linecap="round" stroke-linejoin="round"/>
</svg>
