<svg width="390" height="896" viewBox="0 0 414 896" fill="none" xmlns="http://www.w3.org/2000/svg">
<g clip-path="url(#clip0_504_4290)">
<path fill-rule="evenodd" clip-rule="evenodd" d="M408.637 161.018C411.191 163.926 413.756 166.847 418.139 167.094C420.357 167.027 422.257 166.073 424.259 165.068C424.38 165.007 424.502 164.946 424.625 164.885C433.32 160.181 442.229 155.762 451.28 151.842C455.272 150.132 458.978 147.708 462.47 145.214C467.388 141.65 468.243 137.944 465.321 132.599C459.904 122.55 454.416 112.501 448.928 102.451C448.159 101.054 447.435 99.6347 446.71 98.215C445.624 96.0854 444.538 93.9558 443.298 91.9032C440.661 87.4131 436.67 86.059 431.681 87.6269C428.117 88.7673 424.981 90.5491 422.059 92.7585C416.144 97.1773 409.658 100.456 403.101 103.663C399.965 105.16 396.972 106.941 394.05 108.794C391.769 110.149 389.845 111.859 388.206 113.926C386.424 116.207 385.426 118.772 386.352 121.694C387.635 125.828 388.918 129.891 391.769 133.383C397.542 140.367 402.032 148.207 405.738 156.475C405.854 156.723 405.966 156.983 406.079 157.246C406.455 158.116 406.847 159.025 407.449 159.682C407.849 160.12 408.243 160.569 408.637 161.018ZM419.196 144.966C419.676 146.046 420.183 147.187 421.417 148.207C429.186 143.575 437.453 139.583 446.006 136.448C447.859 135.806 447.645 134.594 446.79 133.169L446.79 133.169C442.229 125.187 437.667 117.204 433.248 109.151C432.037 106.87 430.897 107.155 429.257 108.509C423.251 113.355 416.265 116.501 409.3 119.638C408.992 119.777 408.683 119.916 408.375 120.055C404.027 122.051 403.956 122.122 406.949 125.614C411.653 131.173 415.359 137.445 418.709 143.931C418.885 144.265 419.039 144.612 419.196 144.966Z" fill="#B7EFDD"/>
<path d="M307.057 170.279C306.992 180.199 296.447 186.451 287.627 181.822C285.979 180.936 284.431 179.758 283.077 178.485C275.439 171.626 266.915 166.318 257.509 162.074C250.042 158.718 242.568 156.335 234.502 155.406C231.198 154.995 227.895 154.39 224.988 152.717C219.078 149.177 218.833 142.076 224.501 138.125C226.65 136.68 229.184 135.822 231.717 135.255C241.068 133.079 250.307 133.238 259.723 136.023C275.447 140.795 288.91 149.345 301.586 159.349C305.068 162.29 306.696 166.094 307.057 170.279Z" fill="#B7EFDD"/>
<path fill-rule="evenodd" clip-rule="evenodd" d="M8.22692 218.209C5.72692 224.609 4.82691 231.409 5.02691 237.209C5.32691 274.909 35.4269 301.109 71.3269 295.709C106.627 290.409 132.327 254.509 125.927 219.109C119.527 183.309 86.2269 163.109 51.4269 173.909C28.9269 180.809 16.5269 197.509 8.22692 218.209ZM33.727 237.709C33.527 254.109 46.0269 266.509 61.4269 266.609C83.2269 266.709 101.327 243.809 96.4269 222.309C92.6269 205.609 77.327 195.709 61.027 201.009C42.427 207.009 33.927 217.509 33.727 237.709Z" fill="#B7EFDD"/>
</g>
<defs>
<clipPath id="clip0_504_4290">
<rect width="414" height="896" fill="white"/>
</clipPath>
</defs>
</svg>
