<svg width="414" height="649" viewBox="0 0 414 649" fill="none" xmlns="http://www.w3.org/2000/svg">
<path d="M399.302 2.75613C402.434 4.53389 404.603 7.13137 406.153 10.1725C413.084 23.8317 421.423 36.7072 428.955 50.1456C430.131 52.2593 431.118 54.4924 431.503 56.9462C432.038 60.8927 430.602 64.2317 427.455 66.5356C424.171 68.8733 420.553 68.6716 417.079 66.6868C413.862 64.8573 411.488 62.019 409.252 59.1469C402.782 50.9087 396.501 42.5511 391.647 33.1869C389.91 29.682 388.012 28.1831 383.773 29.0082C366.542 32.376 349.095 33.9765 331.645 36.1602C318.365 37.8272 305.335 41.3988 292.073 42.843C286.961 43.3734 281.916 44.1784 276.787 44.3485C269.635 44.5799 264.591 40.36 263.79 34.1488C263.007 27.7148 267.229 22.0876 274.386 20.69C278.677 19.7794 283.17 19.6927 287.324 18.8159C320.5 11.887 354.147 7.46375 387.372 1.03239C391.56 0.292902 395.641 0.307622 399.302 2.75613Z" fill="#B7EFDD"/>
<path fill-rule="evenodd" clip-rule="evenodd" d="M-26.0047 575.821C-28.3252 581.762 -29.1607 588.074 -28.975 593.458C-28.6966 628.452 -0.756603 652.772 32.5671 647.76C65.3339 642.84 89.1896 609.516 83.2489 576.657C77.3082 543.426 46.3979 524.675 14.0952 534.7C-6.79017 541.105 -18.3003 556.607 -26.0047 575.821ZM-2.33454 593.922C-2.52019 609.145 9.08274 620.655 23.3776 620.748C43.6132 620.841 60.4143 599.584 55.8659 579.627C52.3386 564.125 38.1366 554.936 23.0063 559.856C5.74112 565.425 -2.14889 575.171 -2.33454 593.922Z" fill="#B7EFDD"/>
</svg>
