<svg width="254" height="254" viewBox="0 0 254 254" fill="none" xmlns="http://www.w3.org/2000/svg">
<rect width="254" height="254" fill="white"/>
<path d="M86.3974 147.816C82.9705 146.933 79.7216 145.466 76.7933 143.479C74.9147 142.209 74.8335 141.523 76.3348 139.827C77.5521 138.456 78.7977 137.096 79.9866 135.692C81.3621 134.069 81.8976 132.264 81.2728 130.15C79.8283 125.281 81.9463 122.66 85.026 120.501C85.9645 119.813 86.8378 119.04 87.635 118.192C89.4933 116.314 89.473 114.115 88.5033 111.855C88.0329 110.85 87.8061 109.748 87.8414 108.639C87.8766 107.53 88.1729 106.445 88.7061 105.472C89.6858 103.558 91.207 101.975 93.0801 100.92C94.2974 100.238 95.4659 99.4711 96.6629 98.7489C97.4669 98.2871 98.1619 97.6572 98.7004 96.9024C99.2388 96.1476 99.6081 95.2855 99.7831 94.3749C100.927 88.5645 104.794 84.8357 109.696 82.3768C121.868 76.2906 134.016 76.7328 145.775 83.5941C151.228 86.7671 154.921 91.6077 157.266 97.4545C157.565 98.1292 157.757 98.8466 157.834 99.5807C158.065 103.638 160.439 106.146 163.835 107.923C165.116 108.588 166.241 109.518 167.137 110.65C168.032 111.783 168.677 113.092 169.029 114.492C169.609 116.553 169.84 118.687 169.252 120.822C169.066 121.456 168.919 122.101 168.809 122.753C168.534 124.461 169.118 125.711 170.648 126.644C171.826 127.378 172.921 128.238 173.914 129.209C174.702 129.94 175.326 130.829 175.746 131.819C176.165 132.808 176.371 133.875 176.348 134.95C176.259 137.754 177.322 139.933 179.136 141.892C179.347 142.099 179.545 142.318 179.728 142.55C180.479 143.629 180.43 144.254 179.282 144.891C177.801 145.692 176.28 146.417 174.725 147.062C173.861 147.435 172.932 147.662 171.946 147.983C172.206 148.579 172.388 149.05 172.615 149.5C179.87 164.064 187.132 178.624 194.4 193.179C196.627 197.508 198.084 202.191 198.705 207.019C199.196 211.109 198.364 214.956 195.398 218.064C194.867 218.675 194.213 219.167 193.479 219.508C189.527 221.018 185.425 221.631 181.42 220.024C177.951 218.632 175.245 216.104 173.041 213.053C169.856 208.634 168.639 203.489 167.422 198.32C164.955 187.86 162.358 177.428 159.899 166.968C159.526 165.389 158.743 164.675 157.225 164.253C153.058 163.093 148.932 161.778 144.602 160.468C144.452 160.591 144.322 160.738 144.217 160.902C139.952 168.254 129.33 170.421 122.306 167.499C119.19 166.197 116.804 164.152 115.409 161.007C114.548 159.048 114.496 159.023 112.24 159.307C108.588 159.77 104.981 160.293 101.284 160.804C100.473 164.132 99.6614 167.256 98.8905 170.388C96.74 179.108 94.4516 187.795 92.5324 196.563C91.7318 200.371 90.7254 204.132 89.5176 207.831C88.6003 210.471 87.3485 212.983 85.7929 215.305C82.1938 220.823 74.4683 220.985 69.7576 218.697C63.0059 215.451 61.7724 209.267 62.1376 204.09C62.5433 198.547 63.862 193.179 65.4444 187.9C66.4094 184.886 67.6778 181.976 69.2301 179.217C74.6834 169.106 80.2787 159.076 85.8172 149.009C86.012 148.685 86.1459 148.348 86.3974 147.816ZM122.164 111.798L122.213 111.258C120.963 110.925 119.73 110.394 118.46 110.305C115.238 110.069 112 109.948 108.766 109.948C105.902 109.948 103.402 111.031 101.658 113.364C100.569 114.84 99.6108 116.408 98.7931 118.05C97.308 120.996 96.9551 124.23 96.6507 127.468C96.245 131.822 95.3929 136.037 93.2465 139.941C86.4623 152.262 79.7174 164.608 73.0117 176.978C71.8878 179.043 70.8125 181.137 69.7373 183.23C67.7085 187.207 66.897 191.572 65.8015 195.849C64.8437 199.639 64.4149 203.542 64.5274 207.45C64.5443 208.748 64.8209 210.03 65.3407 211.22C65.8605 212.411 66.6132 213.485 67.5543 214.38C69.0023 215.765 70.7593 216.785 72.6799 217.356C74.6006 217.926 76.6296 218.032 78.5989 217.662C80.2855 217.429 81.8246 216.575 82.9161 215.268C84.4078 213.448 85.6232 211.418 86.5232 209.243C88.698 204.277 89.6272 198.961 90.9175 193.755C94.8979 177.676 98.7687 161.571 102.745 145.471C103.8 141.203 106.308 138.099 110.649 136.719C111.357 136.512 112.044 136.24 112.702 135.908C113.457 135.502 114.325 135.137 114.273 133.806C112.39 133.015 110.458 132.15 108.486 131.371C105.265 130.122 103.934 127.622 103.662 124.364C103.346 120.53 105.127 117.628 108.008 115.437C111.063 113.096 114.658 112.086 118.509 111.972C119.73 111.976 120.947 111.871 122.164 111.798ZM138.8 112.049L138.727 112.479C139.194 112.634 139.652 112.808 140.123 112.938C142.744 113.66 145.446 114.155 147.978 115.129C152.746 116.931 155.229 120.404 154.71 125.273C154.434 127.866 153.574 130.117 150.79 131.14C148.794 131.87 146.875 132.812 144.919 133.652C144.219 133.882 143.54 134.173 142.89 134.52C142.452 134.804 141.819 135.563 141.928 135.766C142.23 136.314 142.734 136.723 143.332 136.906C144.172 137.104 145.085 136.962 145.97 137.007C148.733 137.145 151.346 137.652 153.476 139.677C155.119 141.284 156.277 143.319 156.82 145.552C158.497 151.806 160.093 158.082 161.607 164.379C164.622 176.957 167.519 189.601 170.534 202.195C171.721 207.094 174.315 211.54 177.996 214.984C182.52 219.285 187.92 219.285 192.477 217.257C193.137 216.947 193.715 216.487 194.165 215.913C195.124 214.742 195.817 213.375 196.194 211.908C196.571 210.442 196.623 208.91 196.348 207.421C195.386 201.982 193.607 196.72 191.073 191.812C182.792 175.375 174.656 158.861 166.468 142.379C165.221 140.032 164.384 137.489 163.993 134.861C163.758 132.962 163.62 131.047 163.295 129.18C162.642 125.342 161.887 121.52 161.181 117.689C160.922 116.273 160.017 115.328 158.869 114.606C157.212 113.495 155.328 112.769 153.354 112.479C148.51 111.871 143.661 111.936 138.808 112.049H138.8ZM121.572 143.333C121.572 144.315 121.572 145.118 121.572 145.921C121.771 149.909 120.706 153.858 118.529 157.205C116.906 159.68 117.015 160.374 119.044 162.525C119.502 163.002 120.003 163.435 120.541 163.819C126.798 168.364 137.177 166.797 141.819 160.602C142.029 160.267 142.211 159.915 142.363 159.551C140.334 158.025 138.804 156.134 138.163 153.72C137.718 151.942 137.394 150.137 137.193 148.315C136.974 146.546 136.926 144.753 136.788 142.927C129.756 145.122 129.119 145.244 121.572 143.333ZM143.953 106.004L113.498 104.916C113.287 105.874 113.116 106.649 113.002 107.156C116.175 107.704 119.089 108.11 121.929 108.722C125.496 109.493 125.987 111.108 123.353 114.029C125.788 115.032 126.66 118.087 129.46 118.436C130.352 117.312 130.993 116.31 131.833 115.51C132.784 114.703 133.781 113.953 134.82 113.263C134.69 110.698 135.274 110.082 137.859 109.939C140.111 109.814 142.359 109.639 144.757 109.473L143.953 106.004ZM147.568 124.668C147.508 120.367 145.897 117.791 142.371 116.391C137.798 114.577 134.033 114.987 131.622 119.544C131.05 120.627 130.166 120.899 129.042 120.785C127.76 120.651 126.607 120.29 125.727 119.26C125.002 118.426 124.21 117.653 123.357 116.951C119.742 113.985 113.956 114.744 111.185 118.521C108.182 122.579 108.949 127.573 112.917 130.568C116.269 133.096 121.844 133.554 124.863 130.296C126.891 128.109 129.61 128.843 131.76 130.109C132.313 130.477 132.828 130.898 133.298 131.367C135.396 133.286 137.822 133.23 140.346 132.54C140.979 132.365 141.563 132.073 142.2 131.846C145.588 130.568 147.625 127.63 147.568 124.652V124.668ZM139.981 137.717C139.746 136.841 139.543 136.094 139.324 135.246C138.801 135.193 138.275 135.172 137.749 135.181C136.607 135.281 135.458 135.129 134.381 134.736C133.304 134.344 132.327 133.72 131.517 132.909C131.193 132.605 130.853 132.318 130.498 132.049C128.547 130.556 127.946 130.539 126.149 132.236C124.264 134.044 121.75 135.049 119.137 135.039C118.289 135.039 117.441 135.039 116.496 135.039C122.12 144.818 133.493 143.816 139.981 137.701V137.717ZM158.869 162.886C158.374 160.719 158.012 159.088 157.627 157.465C157.221 155.769 156.815 154.085 156.341 152.19C153.638 152.629 151.131 153.063 148.631 153.436C146.132 153.809 143.499 154.126 140.849 154.483C141.916 156.564 143.008 157.68 144.034 157.98C145.495 158.415 146.948 158.885 148.396 159.364C151.707 160.496 155.034 161.62 158.869 162.886ZM101.723 158.95C106.367 157.852 111.119 157.275 115.891 157.23L117.819 153.842L103.423 151.971C102.883 154.15 102.339 156.394 101.723 158.95Z" fill="#1D1D1D"/>
<path d="M122.339 40.5888C122.469 36.6246 122.574 32.6604 122.745 28.6962C122.842 26.3023 123.613 25.5232 125.991 25.5638C127.531 25.6055 129.065 25.7779 130.576 26.0791C132.405 26.428 132.888 27.0813 132.799 28.9802C132.572 33.7519 132.28 38.5194 132.02 43.287C131.923 45.1169 131.927 46.9631 131.728 48.7849C131.529 50.6067 130.803 50.9881 129.038 50.7569C127.735 50.5905 126.421 50.485 125.106 50.4485C123.422 50.3998 122.728 49.8804 122.598 48.083C122.452 46.0339 122.477 43.9727 122.432 41.9156C122.432 41.4733 122.432 41.031 122.432 40.5928L122.339 40.5888Z" fill="#1D1D1D"/>
<path d="M174.088 43.7498C174.405 43.8441 174.708 43.9806 174.989 44.1556C175.809 44.6448 176.597 45.187 177.346 45.7786C179.874 47.8439 180.081 48.6189 178.787 51.6255C176.758 56.393 173.654 60.552 170.927 64.9057C170.339 65.8389 169.646 66.702 168.862 67.4781C167.844 68.4925 167.122 68.5858 165.904 67.8474C164.591 67.0415 163.328 66.1567 162.123 65.1978C161.06 64.3579 160.962 63.7371 161.599 62.5077C162.236 61.2783 162.983 60.0732 163.677 58.8559C166.338 54.1925 169 49.5264 171.662 44.8575C172.088 44.115 172.575 43.4983 174.088 43.7498Z" fill="#1D1D1D"/>
<path d="M82.279 42.9826C82.85 42.9434 83.4184 43.0908 83.8984 43.4025C84.3785 43.7142 84.7442 44.1735 84.9407 44.7111C85.4479 45.9283 85.8699 47.1861 86.3771 48.4075C88.1218 52.607 89.8868 56.7984 91.6519 60.9857C91.8478 61.4591 91.9999 61.9494 92.1063 62.4505C92.5526 64.5036 92.3822 64.8323 90.4427 65.6032C89.3553 66.0373 88.2638 66.4877 87.1399 66.8204C86.1255 67.1166 85.31 66.861 84.819 65.7533C82.1776 59.7807 79.455 53.8405 76.8419 47.8556C76.0304 46.0054 76.5539 44.9342 78.4 44.2039C79.4144 43.7981 80.4856 43.5141 81.5324 43.1854C81.8083 43.084 82.0842 43.0313 82.279 42.9826Z" fill="#1D1D1D"/>
<path d="M131.975 59.8943C131.975 62.8603 130.141 64.8931 127.569 64.8241C124.997 64.7551 122.976 62.7954 122.984 60.442C122.984 57.4963 124.688 55.2606 126.924 55.2241C129.687 55.1794 131.992 57.2974 131.975 59.8943Z" fill="#1D1D1D"/>
<path d="M156.872 76.1733C156.921 73.333 158.43 71.5599 160.776 71.5396C161.346 71.5292 161.912 71.6366 162.439 71.8551C162.965 72.0736 163.441 72.3986 163.837 72.8096C164.232 73.2205 164.538 73.7087 164.736 74.2436C164.934 74.7784 165.02 75.3483 164.987 75.9177C164.874 78.6889 163.092 80.7867 160.845 80.6649C158.341 80.5432 156.824 78.9202 156.872 76.1733Z" fill="#1D1D1D"/>
<path d="M93.5061 70.5411C95.8514 70.5736 97.4013 72.1114 97.3851 74.3795C97.3851 77.0696 95.5227 79.2931 93.3276 79.2729C91.0229 79.2445 88.9374 77.1589 88.9617 74.8989C88.9617 74.3107 89.0807 73.7286 89.3115 73.1877C89.5423 72.6467 89.8801 72.1579 90.3046 71.7509C90.7291 71.3438 91.2315 71.0268 91.7817 70.8189C92.3319 70.611 92.9185 70.5165 93.5061 70.5411Z" fill="#1D1D1D"/>
<path d="M122.164 111.798C120.947 111.871 119.73 111.976 118.513 112.013C114.662 112.127 111.067 113.137 108.012 115.478C105.131 117.681 103.35 120.582 103.666 124.405C103.938 127.651 105.269 130.162 108.491 131.412C110.462 132.175 112.394 133.035 114.277 133.846C114.346 135.177 113.465 135.547 112.706 135.948C112.048 136.281 111.361 136.552 110.653 136.76C106.312 138.139 103.804 141.223 102.749 145.512C98.7728 161.592 94.902 177.696 90.9215 193.796C89.6313 199.002 88.7021 204.317 86.5273 209.284C85.6272 211.458 84.4118 213.489 82.9201 215.309C81.8287 216.616 80.2895 217.469 78.6029 217.703C76.633 218.071 74.6036 217.965 72.6829 217.393C70.7623 216.82 69.0056 215.799 67.5584 214.412C66.6172 213.517 65.8646 212.443 65.3447 211.253C64.8249 210.063 64.5484 208.781 64.5315 207.482C64.419 203.575 64.8478 199.671 65.8056 195.882C66.8889 191.605 67.6964 187.239 69.7413 183.263C70.8166 181.169 71.8918 179.075 73.0158 177.01C79.7458 164.659 86.4907 152.314 93.2505 139.973C95.397 136.07 96.245 131.858 96.6548 127.5C96.9591 124.254 97.3121 121.008 98.7972 118.083C99.6129 116.437 100.57 114.865 101.658 113.384C103.402 111.051 105.902 109.968 108.766 109.968C112.012 109.968 115.238 110.09 118.46 110.325C119.73 110.414 120.963 110.946 122.213 111.279L122.164 111.798Z" fill="white"/>
<path d="M138.808 112.05C143.677 111.936 148.51 111.871 153.346 112.455C155.32 112.744 157.204 113.471 158.86 114.581C160.009 115.304 160.914 116.249 161.173 117.665C161.879 121.495 162.634 125.318 163.287 129.156C163.612 131.039 163.75 132.954 163.985 134.836C164.376 137.465 165.213 140.008 166.46 142.355C174.648 158.837 182.784 175.351 191.065 191.788C193.599 196.695 195.378 201.958 196.34 207.397C196.615 208.886 196.563 210.417 196.186 211.884C195.809 213.351 195.116 214.718 194.157 215.889C193.707 216.463 193.129 216.923 192.469 217.232C187.912 219.261 182.512 219.289 178.012 214.968C174.331 211.524 171.737 207.078 170.55 202.179C167.523 189.601 164.626 176.957 161.624 164.363C160.114 158.066 158.518 151.79 156.836 145.536C156.294 143.303 155.135 141.267 153.492 139.661C151.362 137.632 148.749 137.129 145.986 136.991C145.101 136.946 144.188 137.088 143.349 136.89C142.75 136.707 142.246 136.298 141.945 135.749C141.835 135.547 142.468 134.788 142.906 134.504C143.557 134.157 144.235 133.866 144.935 133.635C146.891 132.796 148.81 131.854 150.806 131.124C153.59 130.101 154.458 127.849 154.726 125.257C155.245 120.388 152.762 116.923 147.994 115.113C145.463 114.151 142.76 113.644 140.139 112.922C139.668 112.792 139.21 112.618 138.743 112.463L138.808 112.05Z" fill="white"/>
<path d="M121.572 143.333C129.119 145.244 129.756 145.122 136.8 142.927C136.926 144.753 136.974 146.547 137.205 148.316C137.406 150.137 137.73 151.943 138.175 153.72C138.816 156.135 140.338 158.025 142.375 159.551C142.223 159.916 142.041 160.267 141.831 160.602C137.173 166.798 126.818 168.364 120.553 163.819C120.015 163.436 119.514 163.002 119.056 162.525C117.027 160.375 116.922 159.685 118.541 157.206C120.714 153.857 121.775 149.908 121.572 145.922C121.572 145.118 121.572 144.315 121.572 143.333Z" fill="white"/>
<path d="M143.953 105.987L144.765 109.457C142.379 109.623 140.131 109.797 137.867 109.923C135.282 110.065 134.698 110.682 134.828 113.246C133.789 113.936 132.792 114.687 131.841 115.494C131.002 116.306 130.36 117.296 129.468 118.42C126.668 118.071 125.784 115.015 123.361 114.013C125.978 111.092 125.504 109.477 121.937 108.706C119.097 108.093 116.18 107.688 113.011 107.14C113.124 106.633 113.295 105.858 113.506 104.9L143.953 105.987Z" fill="white"/>
<path d="M147.568 124.652C147.625 127.63 145.588 130.568 142.168 131.83C141.551 132.057 140.951 132.349 140.314 132.524C137.79 133.213 135.363 133.27 133.266 131.351C132.796 130.882 132.281 130.461 131.728 130.093C129.59 128.827 126.859 128.093 124.83 130.28C121.807 133.526 116.236 133.079 112.885 130.552C108.917 127.557 108.15 122.571 111.152 118.505C113.944 114.727 119.73 113.969 123.325 116.935C124.177 117.637 124.97 118.409 125.694 119.243C126.591 120.274 127.723 120.635 129.009 120.769C130.133 120.883 131.038 120.611 131.59 119.527C134 114.971 137.765 114.561 142.338 116.375C145.917 117.775 147.507 120.351 147.568 124.652ZM125.922 124.189C125.906 122.178 125.101 120.252 123.681 118.827C122.26 117.402 120.338 116.592 118.326 116.569C117.327 116.55 116.335 116.731 115.408 117.101C114.48 117.47 113.635 118.022 112.924 118.722C112.212 119.423 111.648 120.259 111.264 121.181C110.88 122.103 110.684 123.092 110.688 124.091C110.692 125.089 110.895 126.077 111.286 126.996C111.677 127.915 112.248 128.747 112.965 129.442C113.681 130.137 114.53 130.682 115.46 131.045C116.391 131.407 117.384 131.581 118.383 131.554C120.357 131.569 122.257 130.804 123.669 129.424C125.081 128.045 125.891 126.163 125.922 124.189ZM146.209 123.954C146.335 120.104 143.028 116.703 138.999 116.529C137.03 116.488 135.122 117.211 133.675 118.547C132.228 119.884 131.356 121.728 131.241 123.694C131.21 124.67 131.372 125.643 131.718 126.556C132.064 127.469 132.586 128.305 133.256 129.016C133.925 129.727 134.728 130.299 135.619 130.699C136.51 131.099 137.471 131.319 138.447 131.347C140.455 131.393 142.398 130.64 143.851 129.254C145.304 127.868 146.148 125.962 146.197 123.954H146.209Z" fill="white"/>
<path d="M139.981 137.701C133.489 143.787 122.128 144.818 116.512 135.039C117.458 135.039 118.306 135.039 119.154 135.039C121.761 135.042 124.269 134.035 126.149 132.227C127.946 130.531 128.547 130.547 130.498 132.041C130.853 132.307 131.192 132.591 131.517 132.893C132.327 133.704 133.304 134.328 134.381 134.72C135.458 135.113 136.607 135.264 137.749 135.165C138.275 135.155 138.8 135.177 139.324 135.23C139.543 136.062 139.745 136.824 139.981 137.701Z" fill="white"/>
<path d="M125.921 124.189C125.891 126.164 125.08 128.046 123.667 129.426C122.254 130.805 120.353 131.57 118.379 131.554C116.893 131.544 115.444 131.093 114.215 130.257C112.987 129.422 112.034 128.241 111.478 126.863C110.923 125.485 110.789 123.973 111.094 122.519C111.4 121.066 112.13 119.735 113.193 118.697C114.256 117.66 115.603 116.961 117.064 116.691C118.525 116.42 120.033 116.59 121.397 117.179C122.761 117.767 123.92 118.748 124.725 119.996C125.531 121.244 125.947 122.704 125.921 124.189ZM118.366 117.385C114.556 117.365 111.392 120.225 111.469 123.922C111.542 128.356 114.946 130.791 118.366 130.819C121.787 130.848 125.045 128.6 125.293 124.234C125.463 120.578 122.168 117.405 118.366 117.385Z" fill="#1D1D1D"/>
<path d="M146.197 123.954C146.173 124.949 145.953 125.93 145.549 126.84C145.146 127.75 144.568 128.572 143.847 129.258C143.126 129.945 142.277 130.483 141.349 130.841C140.42 131.199 139.43 131.371 138.435 131.347C137.459 131.319 136.498 131.099 135.607 130.699C134.716 130.299 133.913 129.727 133.243 129.017C132.574 128.306 132.051 127.47 131.706 126.556C131.36 125.643 131.198 124.671 131.229 123.695C131.344 121.729 132.216 119.884 133.663 118.548C135.11 117.211 137.018 116.488 138.987 116.529C143.016 116.704 146.323 120.104 146.197 123.954ZM145.385 123.833C145.389 122.965 145.22 122.106 144.888 121.305C144.555 120.505 144.066 119.778 143.45 119.169C142.833 118.559 142.101 118.079 141.296 117.756C140.492 117.433 139.63 117.274 138.764 117.288C137.886 117.284 137.017 117.454 136.206 117.786C135.394 118.119 134.656 118.608 134.033 119.225C132.776 120.473 132.065 122.169 132.058 123.94C132.051 125.711 132.748 127.413 133.996 128.67C135.244 129.928 136.939 130.638 138.711 130.645C140.498 130.622 142.203 129.892 143.455 128.616C144.706 127.339 145.401 125.62 145.389 123.833H145.385Z" fill="#1D1D1D"/>
<path d="M118.366 117.385C122.168 117.385 125.463 120.578 125.264 124.238C125.017 128.604 121.698 130.856 118.338 130.823C114.978 130.791 111.534 128.356 111.44 123.926C111.392 120.229 114.556 117.365 118.366 117.385Z" fill="white"/>
<path d="M145.389 123.832C145.401 125.619 144.706 127.338 143.456 128.614C142.206 129.89 140.501 130.62 138.715 130.645C137.838 130.641 136.97 130.465 136.161 130.126C135.352 129.787 134.618 129.293 134 128.67C132.753 127.412 132.056 125.711 132.063 123.94C132.07 122.168 132.78 120.472 134.037 119.225C135.295 117.977 136.996 117.28 138.768 117.287C139.635 117.273 140.496 117.432 141.3 117.755C142.105 118.078 142.837 118.559 143.454 119.168C144.071 119.778 144.559 120.504 144.892 121.305C145.224 122.106 145.393 122.965 145.389 123.832Z" fill="white"/>
</svg>
