<svg width="280" height="280" viewBox="0 0 280 280" fill="none" xmlns="http://www.w3.org/2000/svg">
<path d="M112.829 175.921C108.776 176.658 97.0175 183.29 91.6447 186.513L82.8947 229.803L142.303 245.461L203.092 229.803L181.908 183.75L164.408 177.303L144.605 173.158C135.702 173.772 116.882 175.184 112.829 175.921Z" fill="white"/>
<path d="M95.2411 162.946C91.4634 161.973 87.8819 160.355 84.6539 158.165C82.583 156.765 82.4935 156.009 84.1484 154.139C85.4903 152.628 86.8635 151.129 88.174 149.582C89.6903 147.792 90.2807 145.802 89.5919 143.472C87.9996 138.104 90.3344 135.215 93.7293 132.835C94.7638 132.077 95.7266 131.225 96.6053 130.29C98.6539 128.219 98.6315 125.795 97.5625 123.304C97.044 122.196 96.794 120.981 96.8329 119.759C96.8717 118.536 97.1983 117.34 97.7861 116.268C98.8661 114.158 100.543 112.413 102.608 111.249C103.95 110.498 105.238 109.652 106.557 108.856C107.444 108.347 108.21 107.653 108.803 106.821C109.397 105.989 109.804 105.038 109.997 104.035C111.258 97.6295 115.521 93.5189 120.924 90.8083C134.343 84.0991 147.734 84.5866 160.697 92.1502C166.708 95.648 170.778 100.984 173.364 107.429C173.694 108.173 173.905 108.964 173.99 109.773C174.245 114.246 176.862 117.01 180.605 118.969C182.018 119.703 183.258 120.728 184.245 121.976C185.232 123.224 185.943 124.668 186.331 126.211C186.97 128.483 187.225 130.836 186.577 133.189C186.372 133.888 186.21 134.599 186.089 135.318C185.785 137.201 186.429 138.578 188.115 139.607C189.414 140.416 190.622 141.364 191.716 142.434C192.584 143.24 193.273 144.22 193.735 145.311C194.198 146.402 194.424 147.578 194.4 148.763C194.301 151.854 195.473 154.256 197.472 156.416C197.705 156.643 197.923 156.885 198.125 157.141C198.953 158.33 198.899 159.019 197.633 159.721C196.001 160.605 194.325 161.404 192.61 162.114C191.658 162.526 190.633 162.776 189.547 163.13C189.833 163.787 190.034 164.306 190.285 164.803C198.282 180.857 206.287 196.907 214.299 212.953C216.754 217.724 218.36 222.887 219.045 228.21C219.586 232.718 218.669 236.959 215.4 240.385C214.814 241.058 214.093 241.6 213.284 241.977C208.927 243.641 204.405 244.316 199.991 242.545C196.166 241.011 193.183 238.224 190.754 234.861C187.243 229.99 185.901 224.318 184.559 218.62C181.84 207.089 178.977 195.589 176.267 184.058C175.855 182.318 174.992 181.531 173.319 181.066C168.725 179.787 164.177 178.337 159.404 176.893C159.238 177.029 159.095 177.191 158.979 177.371C154.278 185.476 142.568 187.865 134.826 184.644C131.391 183.208 128.761 180.954 127.222 177.488C126.274 175.327 126.216 175.3 123.729 175.613C119.703 176.123 115.727 176.7 111.652 177.264C110.757 180.932 109.863 184.376 109.013 187.829C106.642 197.441 104.12 207.017 102.004 216.683C101.122 220.88 100.012 225.027 98.6807 229.104C97.6694 232.015 96.2895 234.783 94.5746 237.343C90.6072 243.426 82.0909 243.605 76.898 241.082C69.4551 237.504 68.0954 230.688 68.498 224.98C68.9453 218.87 70.3989 212.953 72.1433 207.134C73.207 203.81 74.6053 200.603 76.3165 197.562C82.328 186.415 88.4961 175.359 94.6015 164.261C94.8162 163.904 94.9638 163.532 95.2411 162.946ZM134.669 123.241L134.723 122.646C133.345 122.279 131.986 121.693 130.586 121.595C127.034 121.335 123.465 121.201 119.9 121.201C116.742 121.201 113.987 122.396 112.063 124.967C110.864 126.595 109.807 128.324 108.906 130.134C107.269 133.381 106.879 136.946 106.544 140.515C106.097 145.314 105.157 149.962 102.791 154.265C95.3127 167.847 87.8773 181.456 80.4852 195.093C79.2462 197.369 78.0609 199.677 76.8756 201.985C74.6392 206.369 73.7446 211.182 72.5369 215.896C71.4811 220.073 71.0084 224.377 71.1325 228.684C71.1511 230.115 71.4559 231.529 72.029 232.841C72.602 234.153 73.4317 235.337 74.4692 236.323C76.0654 237.85 78.0023 238.975 80.1195 239.604C82.2367 240.233 84.4734 240.349 86.6443 239.942C88.5036 239.684 90.2002 238.744 91.4034 237.303C93.0478 235.296 94.3876 233.058 95.3798 230.661C97.7772 225.186 98.8015 219.327 100.224 213.588C104.612 195.862 108.879 178.109 113.262 160.361C114.425 155.656 117.189 152.234 121.975 150.713C122.755 150.484 123.513 150.185 124.239 149.819C125.07 149.371 126.028 148.969 125.97 147.502C123.894 146.629 121.765 145.677 119.591 144.818C116.04 143.44 114.573 140.685 114.273 137.093C113.924 132.867 115.888 129.668 119.063 127.253C122.432 124.672 126.394 123.559 130.639 123.433C131.986 123.438 133.327 123.321 134.669 123.241ZM153.008 123.518L152.927 123.992C153.442 124.162 153.947 124.355 154.466 124.498C157.355 125.294 160.334 125.84 163.125 126.913C168.381 128.899 171.118 132.728 170.546 138.095C170.242 140.953 169.294 143.436 166.225 144.563C164.024 145.368 161.909 146.406 159.753 147.332C158.981 147.586 158.233 147.906 157.516 148.289C157.033 148.602 156.336 149.438 156.456 149.662C156.789 150.267 157.344 150.718 158.004 150.919C158.93 151.138 159.936 150.981 160.911 151.031C163.957 151.183 166.838 151.742 169.186 153.974C170.997 155.745 172.274 157.989 172.872 160.451C174.721 167.345 176.48 174.263 178.15 181.205C181.473 195.07 184.667 209.008 187.99 222.891C189.299 228.292 192.158 233.193 196.216 236.99C201.203 241.731 207.156 241.731 212.179 239.495C212.907 239.154 213.544 238.647 214.04 238.014C215.098 236.723 215.861 235.216 216.277 233.599C216.692 231.982 216.75 230.294 216.446 228.652C215.386 222.657 213.425 216.855 210.632 211.445C201.502 193.326 192.534 175.121 183.508 156.953C182.134 154.365 181.211 151.562 180.78 148.665C180.52 146.571 180.368 144.46 180.01 142.403C179.29 138.171 178.458 133.958 177.68 129.736C177.394 128.174 176.396 127.132 175.131 126.336C173.304 125.112 171.227 124.311 169.052 123.992C163.711 123.321 158.366 123.393 153.017 123.518H153.008ZM134.016 158.004C134.016 159.086 134.016 159.972 134.016 160.858C134.236 165.254 133.062 169.607 130.662 173.297C128.872 176.025 128.993 176.79 131.23 179.16C131.734 179.687 132.287 180.164 132.88 180.587C139.777 185.597 151.219 183.87 156.336 177.04C156.567 176.672 156.768 176.284 156.935 175.882C154.699 174.2 153.012 172.116 152.306 169.454C151.815 167.495 151.458 165.504 151.237 163.497C150.995 161.546 150.941 159.569 150.789 157.557C143.038 159.976 142.336 160.111 134.016 158.004ZM158.688 116.854L125.115 115.655C124.883 116.711 124.695 117.565 124.57 118.124C128.067 118.728 131.279 119.175 134.41 119.851C138.341 120.7 138.883 122.481 135.98 125.701C138.663 126.806 139.625 130.174 142.711 130.559C143.695 129.32 144.402 128.215 145.328 127.334C146.376 126.444 147.475 125.616 148.62 124.856C148.477 122.029 149.121 121.349 151.97 121.192C154.453 121.054 156.931 120.861 159.574 120.678L158.688 116.854ZM162.674 137.429C162.607 132.688 160.831 129.847 156.944 128.304C151.903 126.305 147.752 126.757 145.095 131.78C144.465 132.974 143.49 133.274 142.251 133.148C140.837 133.001 139.567 132.603 138.596 131.466C137.798 130.547 136.924 129.696 135.984 128.921C131.999 125.652 125.621 126.488 122.566 130.652C119.256 135.125 120.101 140.631 124.476 143.932C128.17 146.719 134.316 147.224 137.644 143.633C139.88 141.222 142.877 142.031 145.247 143.427C145.857 143.832 146.425 144.296 146.943 144.813C149.255 146.929 151.93 146.867 154.712 146.106C155.41 145.914 156.054 145.592 156.756 145.341C160.491 143.932 162.736 140.694 162.674 137.411V137.429ZM154.309 151.813C154.05 150.847 153.826 150.024 153.585 149.09C153.008 149.031 152.429 149.007 151.849 149.018C150.591 149.128 149.323 148.96 148.136 148.528C146.949 148.095 145.872 147.407 144.979 146.513C144.622 146.178 144.247 145.861 143.856 145.565C141.705 143.919 141.043 143.901 139.062 145.771C136.983 147.764 134.212 148.872 131.332 148.861C130.398 148.861 129.463 148.861 128.421 148.861C134.62 159.641 147.157 158.536 154.309 151.796V151.813ZM175.131 179.559C174.585 177.17 174.187 175.372 173.762 173.583C173.315 171.713 172.867 169.857 172.344 167.768C169.365 168.251 166.601 168.73 163.846 169.141C161.09 169.553 158.187 169.902 155.267 170.295C156.443 172.59 157.646 173.82 158.778 174.151C160.388 174.629 161.989 175.148 163.586 175.676C167.236 176.924 170.904 178.163 175.131 179.559ZM112.135 175.22C117.255 174.009 122.493 173.373 127.754 173.323L129.879 169.589L114.009 167.527C113.414 169.928 112.815 172.402 112.135 175.22Z" fill="black"/>
<path d="M134.669 123.242C133.327 123.322 131.986 123.438 130.644 123.479C126.399 123.604 122.436 124.718 119.068 127.298C115.892 129.727 113.929 132.925 114.278 137.139C114.577 140.717 116.044 143.486 119.596 144.863C121.77 145.704 123.899 146.652 125.974 147.547C126.05 149.014 125.079 149.421 124.243 149.864C123.517 150.23 122.76 150.53 121.98 150.759C117.194 152.279 114.43 155.679 113.267 160.406C108.883 178.132 104.616 195.885 100.228 213.633C98.806 219.372 97.7817 225.231 95.3842 230.706C94.3921 233.103 93.0523 235.341 91.4079 237.348C90.2047 238.789 88.508 239.73 86.6488 239.987C84.4771 240.393 82.24 240.276 80.1228 239.645C78.0055 239.014 76.069 237.888 74.4737 236.36C73.4362 235.373 72.6065 234.189 72.0334 232.877C71.4604 231.565 71.1556 230.152 71.1369 228.72C71.0129 224.413 71.4856 220.11 72.5414 215.932C73.7357 211.218 74.6258 206.405 76.8801 202.022C78.0654 199.714 79.2507 197.406 80.4897 195.129C87.9086 181.514 95.344 167.904 102.796 154.301C105.162 149.998 106.097 145.355 106.548 140.552C106.884 136.973 107.273 133.395 108.91 130.17C109.809 128.356 110.864 126.623 112.063 124.99C113.987 122.419 116.742 121.224 119.9 121.224C123.478 121.224 127.034 121.359 130.586 121.618C131.986 121.716 133.345 122.302 134.723 122.669L134.669 123.242Z" fill="white"/>
<path d="M153.017 123.519C158.384 123.394 163.712 123.322 169.043 123.966C171.219 124.285 173.296 125.086 175.122 126.31C176.388 127.106 177.385 128.148 177.671 129.709C178.45 133.932 179.282 138.145 180.002 142.377C180.36 144.452 180.512 146.563 180.771 148.639C181.202 151.536 182.125 154.339 183.499 156.927C192.526 175.095 201.494 193.3 210.623 211.419C213.417 216.829 215.377 222.631 216.438 228.626C216.741 230.268 216.684 231.956 216.268 233.573C215.852 235.19 215.089 236.697 214.031 237.988C213.536 238.621 212.898 239.128 212.17 239.469C207.147 241.705 201.194 241.736 196.234 236.973C192.176 233.176 189.317 228.275 188.008 222.874C184.671 209.009 181.478 195.071 178.168 181.187C176.504 174.246 174.745 167.328 172.89 160.433C172.292 157.972 171.015 155.728 169.204 153.957C166.856 151.72 163.976 151.166 160.93 151.014C159.954 150.964 158.948 151.121 158.022 150.902C157.362 150.7 156.807 150.249 156.475 149.645C156.354 149.421 157.052 148.585 157.535 148.272C158.251 147.889 159 147.569 159.771 147.315C161.927 146.389 164.043 145.351 166.243 144.546C169.312 143.419 170.269 140.936 170.564 138.078C171.137 132.711 168.399 128.891 163.144 126.896C160.353 125.836 157.374 125.277 154.484 124.481C153.965 124.338 153.46 124.145 152.945 123.975L153.017 123.519Z" fill="white"/>
<path d="M134.016 158.005C142.336 160.112 143.038 159.978 150.803 157.558C150.942 159.571 150.995 161.548 151.25 163.498C151.471 165.506 151.829 167.496 152.319 169.456C153.026 172.117 154.703 174.201 156.949 175.883C156.781 176.285 156.581 176.673 156.349 177.042C151.214 183.872 139.8 185.598 132.894 180.589C132.3 180.166 131.748 179.688 131.243 179.162C129.007 176.791 128.89 176.031 130.675 173.298C133.071 169.607 134.24 165.254 134.016 160.859C134.016 159.973 134.016 159.088 134.016 158.005Z" fill="white"/>
<path d="M158.688 116.836L159.583 120.66C156.953 120.844 154.475 121.036 151.979 121.175C149.13 121.331 148.486 122.011 148.629 124.838C147.484 125.599 146.385 126.426 145.337 127.316C144.411 128.211 143.704 129.302 142.72 130.541C139.634 130.156 138.659 126.788 135.989 125.683C138.874 122.463 138.35 120.683 134.419 119.833C131.288 119.158 128.072 118.71 124.579 118.106C124.704 117.547 124.892 116.693 125.124 115.637L158.688 116.836Z" fill="white"/>
<path d="M162.674 137.412C162.736 140.695 160.491 143.934 156.72 145.325C156.041 145.575 155.379 145.897 154.676 146.089C151.894 146.85 149.22 146.912 146.907 144.797C146.389 144.28 145.821 143.815 145.212 143.41C142.855 142.015 139.844 141.205 137.608 143.616C134.276 147.194 128.135 146.702 124.44 143.916C120.066 140.615 119.22 135.118 122.53 130.636C125.607 126.472 131.986 125.635 135.949 128.905C136.888 129.679 137.762 130.53 138.561 131.45C139.549 132.586 140.797 132.984 142.215 133.132C143.454 133.257 144.451 132.957 145.06 131.763C147.717 126.74 151.867 126.288 156.908 128.287C160.853 129.831 162.607 132.671 162.674 137.412ZM138.811 136.902C138.794 134.684 137.907 132.562 136.341 130.991C134.775 129.42 132.656 128.527 130.438 128.502C129.337 128.481 128.244 128.68 127.221 129.088C126.198 129.495 125.268 130.103 124.483 130.876C123.699 131.648 123.077 132.569 122.653 133.586C122.23 134.602 122.014 135.692 122.018 136.793C122.023 137.894 122.247 138.983 122.678 139.996C123.109 141.009 123.738 141.926 124.528 142.692C125.318 143.459 126.254 144.059 127.279 144.459C128.305 144.859 129.4 145.05 130.501 145.02C132.677 145.037 134.771 144.193 136.328 142.673C137.884 141.152 138.777 139.078 138.811 136.902ZM161.175 136.643C161.314 132.398 157.669 128.65 153.227 128.457C151.057 128.412 148.953 129.21 147.358 130.683C145.764 132.156 144.802 134.189 144.675 136.356C144.641 137.432 144.82 138.504 145.201 139.511C145.582 140.518 146.158 141.44 146.896 142.223C147.634 143.007 148.519 143.637 149.501 144.078C150.483 144.519 151.543 144.762 152.619 144.792C154.832 144.843 156.975 144.013 158.576 142.485C160.178 140.957 161.108 138.856 161.162 136.643H161.175Z" fill="white"/>
<path d="M154.31 151.796C147.153 158.505 134.629 159.641 128.439 148.861C129.481 148.861 130.416 148.861 131.35 148.861C134.225 148.865 136.989 147.754 139.062 145.762C141.043 143.892 141.705 143.91 143.856 145.556C144.247 145.849 144.622 146.163 144.979 146.495C145.872 147.389 146.949 148.077 148.136 148.51C149.323 148.943 150.591 149.11 151.849 149C152.429 148.989 153.008 149.013 153.585 149.072C153.826 149.989 154.05 150.83 154.31 151.796Z" fill="white"/>
<path d="M138.811 136.901C138.777 139.078 137.884 141.153 136.326 142.673C134.769 144.194 132.673 145.037 130.496 145.019C128.858 145.008 127.261 144.511 125.907 143.59C124.552 142.67 123.502 141.367 122.889 139.848C122.277 138.33 122.13 136.663 122.466 135.06C122.803 133.458 123.608 131.991 124.78 130.847C125.952 129.703 127.437 128.933 129.047 128.635C130.658 128.337 132.32 128.524 133.824 129.173C135.328 129.822 136.605 130.903 137.493 132.279C138.381 133.655 138.839 135.264 138.811 136.901ZM130.483 129.4C126.283 129.378 122.794 132.531 122.879 136.606C122.959 141.495 126.712 144.178 130.483 144.21C134.253 144.241 137.845 141.763 138.118 136.95C138.306 132.92 134.674 129.423 130.483 129.4Z" fill="black"/>
<path d="M161.162 136.642C161.135 137.739 160.893 138.82 160.448 139.824C160.004 140.827 159.366 141.733 158.571 142.489C157.777 143.246 156.841 143.839 155.817 144.234C154.794 144.629 153.702 144.819 152.605 144.792C151.529 144.761 150.47 144.519 149.488 144.078C148.506 143.637 147.62 143.007 146.882 142.223C146.144 141.439 145.568 140.518 145.187 139.511C144.806 138.504 144.628 137.432 144.661 136.356C144.788 134.189 145.75 132.155 147.345 130.682C148.94 129.209 151.043 128.412 153.214 128.457C157.655 128.649 161.3 132.398 161.162 136.642ZM160.267 136.508C160.272 135.552 160.085 134.605 159.719 133.723C159.352 132.84 158.813 132.039 158.134 131.367C157.454 130.695 156.647 130.166 155.76 129.81C154.872 129.453 153.923 129.278 152.968 129.294C152.001 129.29 151.043 129.476 150.148 129.843C149.253 130.209 148.439 130.748 147.753 131.429C146.367 132.805 145.584 134.674 145.576 136.627C145.568 138.579 146.337 140.455 147.712 141.841C149.087 143.227 150.957 144.01 152.909 144.018C154.88 143.992 156.759 143.188 158.139 141.781C159.518 140.374 160.285 138.479 160.272 136.508H160.267Z" fill="black"/>
<path d="M130.483 129.401C134.674 129.401 138.306 132.921 138.086 136.955C137.814 141.768 134.155 144.25 130.451 144.215C126.748 144.179 122.95 141.495 122.847 136.611C122.794 132.536 126.283 129.378 130.483 129.401Z" fill="white"/>
<path d="M160.272 136.508C160.285 138.478 159.519 140.373 158.14 141.78C156.762 143.186 154.883 143.991 152.914 144.018C151.947 144.014 150.99 143.82 150.099 143.447C149.207 143.073 148.397 142.528 147.716 141.841C146.341 140.455 145.573 138.58 145.581 136.627C145.588 134.674 146.371 132.805 147.758 131.429C149.144 130.054 151.019 129.286 152.972 129.294C153.928 129.278 154.877 129.454 155.764 129.81C156.651 130.166 157.458 130.695 158.138 131.367C158.818 132.039 159.357 132.84 159.723 133.723C160.09 134.605 160.276 135.553 160.272 136.508Z" fill="white"/>
</svg>
